<svg class="us-map-dots" viewBox="0 0 1000 589" xmlns="http://www.w3.org/2000/svg" aria-hidden="true" preserveAspectRatio="xMidYMid meet">
  <!-- coords computed via Albers Equal-Area Conic (phi1=29.5, phi2=45.5, phi0=37.5, lam0=-96) -->
  <!-- calibrated to us.svg viewBox 0 0 1000 589 using uscities.csv lat/lng values -->
  <!-- Zone 1: Pacific coast -->
  <circle class="city-dot" data-zone="1" cx="252" cy="78"  r="3"/>
  <circle class="city-dot" data-zone="1" cx="237" cy="113" r="3"/>
  <circle class="city-dot" data-zone="1" cx="216" cy="241" r="3"/>
  <circle class="city-dot" data-zone="1" cx="198" cy="252" r="3"/>
  <circle class="city-dot" data-zone="1" cx="240" cy="332" r="3"/>
  <circle class="city-dot" data-zone="1" cx="254" cy="362" r="3"/>
  <!-- Zone 2: Mountain / Plains / South -->
  <circle class="city-dot" data-zone="2" cx="313" cy="168" r="3"/>
  <circle class="city-dot" data-zone="2" cx="297" cy="304" r="3"/>
  <circle class="city-dot" data-zone="2" cx="363" cy="230" r="3"/>
  <circle class="city-dot" data-zone="2" cx="337" cy="361" r="3"/>
  <circle class="city-dot" data-zone="2" cx="352" cy="390" r="3"/>
  <circle class="city-dot" data-zone="2" cx="462" cy="262" r="3"/>
  <circle class="city-dot" data-zone="2" cx="426" cy="345" r="3"/>
  <circle class="city-dot" data-zone="2" cx="630" cy="171" r="3"/>
  <circle class="city-dot" data-zone="2" cx="594" cy="240" r="3"/>
  <circle class="city-dot" data-zone="2" cx="614" cy="279" r="3"/>
  <circle class="city-dot" data-zone="2" cx="569" cy="347" r="3"/>
  <circle class="city-dot" data-zone="2" cx="581" cy="396" r="3"/>
  <circle class="city-dot" data-zone="2" cx="564" cy="442" r="3"/>
  <circle class="city-dot" data-zone="2" cx="550" cy="457" r="3"/>
  <circle class="city-dot" data-zone="2" cx="603" cy="452" r="3"/>
  <circle class="city-dot" data-zone="2" cx="694" cy="443" r="3"/>
  <circle class="city-dot" data-zone="2" cx="679" cy="286" r="3"/>
  <circle class="city-dot" data-zone="2" cx="686" cy="350" r="3"/>
  <!-- Zone 3: Midwest / East coast -->
  <circle class="city-dot" data-zone="3" cx="706" cy="202" r="3"/>
  <circle class="city-dot" data-zone="3" cx="712" cy="224" r="3"/>
  <circle class="city-dot" data-zone="3" cx="738" cy="260" r="3"/>
  <circle class="city-dot" data-zone="3" cx="735" cy="327" r="3"/>
  <circle class="city-dot" data-zone="3" cx="775" cy="207" r="3"/>
  <circle class="city-dot" data-zone="3" cx="798" cy="221" r="3"/>
  <circle class="city-dot" data-zone="3" cx="783" cy="251" r="3"/>
  <circle class="city-dot" data-zone="3" cx="825" cy="236" r="3"/>
  <circle class="city-dot" data-zone="3" cx="777" cy="368" r="3"/>
  <circle class="city-dot" data-zone="3" cx="829" cy="334" r="3"/>
  <circle class="city-dot" data-zone="3" cx="831" cy="425" r="3"/>
  <circle class="city-dot" data-zone="3" cx="824" cy="469" r="3"/>
  <circle class="city-dot" data-zone="3" cx="869" cy="503" r="3"/>
  <circle class="city-dot" data-zone="3" cx="878" cy="248" r="3"/>
  <circle class="city-dot" data-zone="3" cx="874" cy="257" r="3"/>
  <circle class="city-dot" data-zone="3" cx="873" cy="283" r="3"/>
  <circle class="city-dot" data-zone="3" cx="861" cy="317" r="3"/>
  <circle class="city-dot" data-zone="3" cx="896" cy="232" r="3"/>
  <circle class="city-dot" data-zone="3" cx="911" cy="215" r="3"/>
  <circle class="city-dot" data-zone="3" cx="923" cy="192" r="3"/>
  <circle class="city-dot" data-zone="3" cx="943" cy="176" r="3"/>
</svg>
